<svg width="23" height="17" viewBox="0 0 23 17" fill="none" xmlns="http://www.w3.org/2000/svg">
<path d="M19.0312 1.42838C19.0252 1.41694 19.0154 1.40798 19.0034 1.4031C17.6146 0.771401 16.149 0.320953 14.6434 0.063025C14.6297 0.0605038 14.6155 0.0623227 14.603 0.0682228C14.5904 0.074123 14.58 0.0838041 14.5733 0.0958894C14.3737 0.454973 14.1926 0.823812 14.0305 1.201C12.4075 0.956748 10.7566 0.956748 9.13355 1.201C8.97041 0.822854 8.78635 0.453924 8.5822 0.0958894C8.5752 0.0840668 8.56477 0.0746086 8.55227 0.0687468C8.53977 0.0628849 8.52577 0.0608911 8.51211 0.063025C7.00629 0.320412 5.54063 0.770893 4.15204 1.40313C4.14015 1.40813 4.13012 1.41666 4.12333 1.42755C1.34641 5.53877 0.585702 9.5489 0.958878 13.5094C0.959928 13.5191 0.962936 13.5285 0.967723 13.537C0.972511 13.5455 0.97898 13.553 0.986746 13.559C2.60372 14.746 4.41233 15.652 6.33539 16.2383C6.34893 16.2424 6.36339 16.2422 6.37683 16.2378C6.39027 16.2335 6.40203 16.2251 6.41054 16.2139C6.82357 15.6568 7.18955 15.0668 7.50475 14.45C7.50908 14.4416 7.51156 14.4323 7.51201 14.4228C7.51246 14.4133 7.51088 14.4039 7.50737 14.395C7.50386 14.3862 7.49851 14.3782 7.49166 14.3716C7.48481 14.3649 7.47662 14.3598 7.46763 14.3566C6.89051 14.1376 6.33179 13.8737 5.79672 13.5673C5.787 13.5617 5.77884 13.5537 5.77295 13.5442C5.76706 13.5347 5.76364 13.5238 5.76297 13.5127C5.7623 13.5015 5.76442 13.4904 5.76913 13.4802C5.77384 13.4701 5.781 13.4612 5.78998 13.4544C5.90225 13.3711 6.0146 13.2843 6.12181 13.1967C6.13133 13.1889 6.14286 13.1839 6.15509 13.1823C6.16732 13.1807 6.17976 13.1825 6.19102 13.1875C9.69652 14.7735 13.4917 14.7735 16.9557 13.1875C16.967 13.1821 16.9796 13.1801 16.992 13.1816C17.0044 13.1831 17.0161 13.188 17.0258 13.1959C17.133 13.2835 17.2453 13.3711 17.3585 13.4544C17.3675 13.4611 17.3747 13.4699 17.3795 13.48C17.3843 13.4902 17.3865 13.5013 17.3859 13.5125C17.3853 13.5236 17.382 13.5345 17.3762 13.544C17.3703 13.5536 17.3622 13.5616 17.3526 13.5673C16.8187 13.8763 16.2595 14.1401 15.6808 14.3557C15.6719 14.3591 15.6637 14.3643 15.6569 14.3711C15.6501 14.3778 15.6448 14.3859 15.6414 14.3948C15.6379 14.4037 15.6364 14.4132 15.6369 14.4227C15.6375 14.4322 15.64 14.4415 15.6444 14.45C15.9649 15.0634 16.3303 15.6526 16.7378 16.213C16.7461 16.2245 16.7578 16.2331 16.7713 16.2376C16.7847 16.2422 16.7993 16.2424 16.8129 16.2382C18.7394 15.6538 20.5512 14.7478 22.1702 13.559C22.1781 13.5533 22.1847 13.546 22.1895 13.5376C22.1943 13.5292 22.1972 13.5198 22.1981 13.5102C22.6448 8.93148 21.4501 4.95421 19.0312 1.42838ZM8.02827 11.0979C6.97286 11.0979 6.10323 10.1377 6.10323 8.95846C6.10323 7.77925 6.95599 6.81899 8.02827 6.81899C9.10893 6.81899 9.97014 7.78759 9.95327 8.95839C9.95327 10.1377 9.10047 11.0979 8.02827 11.0979ZM15.1457 11.0979C14.0903 11.0979 13.2207 10.1377 13.2207 8.95846C13.2207 7.77925 14.0735 6.81899 15.1457 6.81899C16.2264 6.81899 17.0876 7.78759 17.0707 8.95839C17.0707 10.1377 16.2264 11.0979 15.1457 11.0979Z" fill="white"/>
</svg>
