<svg width="22" height="22" viewBox="0 0 22 22" fill="none" xmlns="http://www.w3.org/2000/svg">
<path d="M10.7124 5.21702C7.67321 5.21702 5.2218 7.66843 5.2218 10.7076C5.2218 13.7468 7.67321 16.1982 10.7124 16.1982C13.7516 16.1982 16.203 13.7468 16.203 10.7076C16.203 7.66843 13.7516 5.21702 10.7124 5.21702ZM10.7124 14.2772C8.74839 14.2772 7.14279 12.6764 7.14279 10.7076C7.14279 8.73883 8.74361 7.13801 10.7124 7.13801C12.6812 7.13801 14.282 8.73883 14.282 10.7076C14.282 12.6764 12.6764 14.2772 10.7124 14.2772V14.2772ZM17.7082 4.99242C17.7082 5.70443 17.1348 6.27309 16.4276 6.27309C15.7156 6.27309 15.1469 5.69966 15.1469 4.99242C15.1469 4.28519 15.7203 3.71176 16.4276 3.71176C17.1348 3.71176 17.7082 4.28519 17.7082 4.99242ZM21.3447 6.2922C21.2635 4.57669 20.8717 3.0571 19.6149 1.80511C18.3629 0.553121 16.8433 0.161277 15.1278 0.0752627C13.3597 -0.0250876 8.06028 -0.0250876 6.2922 0.0752627C4.58147 0.156499 3.06188 0.548342 1.80511 1.80033C0.548343 3.05232 0.161277 4.57191 0.0752627 6.28742C-0.0250876 8.0555 -0.0250876 13.3549 0.0752627 15.123C0.156499 16.8385 0.548343 18.3581 1.80511 19.6101C3.06188 20.8621 4.57669 21.2539 6.2922 21.34C8.06028 21.4403 13.3597 21.4403 15.1278 21.34C16.8433 21.2587 18.3629 20.8669 19.6149 19.6101C20.8669 18.3581 21.2587 16.8385 21.3447 15.123C21.4451 13.3549 21.4451 8.06028 21.3447 6.2922V6.2922ZM19.0606 17.0201C18.6878 17.9567 17.9663 18.6783 17.0249 19.0558C15.6152 19.6149 12.2702 19.4859 10.7124 19.4859C9.15457 19.4859 5.80478 19.6101 4.39988 19.0558C3.46328 18.6831 2.74171 17.9615 2.3642 17.0201C1.80511 15.6104 1.93413 12.2654 1.93413 10.7076C1.93413 9.14979 1.80989 5.80001 2.3642 4.3951C2.73693 3.4585 3.4585 2.73693 4.39988 2.35943C5.80956 1.80033 9.15457 1.92935 10.7124 1.92935C12.2702 1.92935 15.62 1.80511 17.0249 2.35943C17.9615 2.73215 18.6831 3.45372 19.0606 4.3951C19.6197 5.80478 19.4906 9.14979 19.4906 10.7076C19.4906 12.2654 19.6197 15.6152 19.0606 17.0201Z" fill="white"/>
</svg>
