<svg width="22" height="19" viewBox="0 0 22 19" fill="none" xmlns="http://www.w3.org/2000/svg">
<path d="M19.5097 5.07507C19.5233 5.26538 19.5233 5.45572 19.5233 5.64602C19.5233 11.4505 15.1054 18.1385 7.03075 18.1385C4.54311 18.1385 2.23222 17.418 0.28833 16.1675C0.641776 16.2082 0.981581 16.2218 1.34863 16.2218C3.40122 16.2218 5.29076 15.5286 6.79965 14.3459C4.86936 14.3051 3.25172 13.0409 2.69437 11.3009C2.96627 11.3417 3.23812 11.3689 3.52361 11.3689C3.91782 11.3689 4.31206 11.3145 4.67906 11.2194C2.66722 10.8116 1.15828 9.04441 1.15828 6.91022V6.85586C1.74279 7.18211 2.42252 7.38601 3.14293 7.41317C1.96028 6.62472 1.18548 5.27897 1.18548 3.75648C1.18548 2.94088 1.40294 2.19324 1.78358 1.54074C3.94497 4.20508 7.19385 5.94503 10.8369 6.13537C10.7689 5.80912 10.7281 5.46932 10.7281 5.12947C10.7281 2.70979 12.6856 0.738739 15.1189 0.738739C16.3831 0.738739 17.5249 1.26889 18.327 2.12528C19.3193 1.93498 20.2708 1.56794 21.1137 1.06499C20.7874 2.08453 20.0941 2.94092 19.1834 3.48463C20.067 3.38952 20.9234 3.14478 21.7118 2.80498C21.1137 3.67493 20.366 4.44973 19.5097 5.07507V5.07507Z" fill="white"/>
</svg>
