<svg width="22" height="22" viewBox="0 0 22 22" fill="none" xmlns="http://www.w3.org/2000/svg">
<path d="M14.2429 7.75728C16.7428 10.2598 16.7085 14.2721 14.2579 16.7363C14.2533 16.7413 14.2479 16.7468 14.2429 16.7518L11.431 19.5636C8.95103 22.0436 4.91618 22.0433 2.43655 19.5636C-0.0434653 17.084 -0.0434653 13.0487 2.43655 10.5691L3.98916 9.01649C4.40089 8.60476 5.10996 8.87841 5.13121 9.46028C5.15833 10.2018 5.2913 10.9468 5.53667 11.6663C5.61977 11.9099 5.56039 12.1793 5.37838 12.3614L4.83078 12.9089C3.6581 14.0816 3.62132 15.9911 4.78246 17.1752C5.95505 18.371 7.88241 18.3782 9.064 17.1966L11.8758 14.3852C13.0554 13.2056 13.0505 11.299 11.8758 10.1243C11.721 9.96975 11.565 9.84966 11.4431 9.76577C11.3569 9.70658 11.2858 9.62806 11.2353 9.53648C11.1848 9.4449 11.1565 9.34279 11.1525 9.2383C11.1359 8.79615 11.2925 8.34053 11.6419 7.99114L12.5229 7.11014C12.7539 6.87913 13.1163 6.85076 13.3842 7.03771C13.6909 7.25193 13.9783 7.49271 14.2429 7.75728ZM20.14 1.8599C17.6603 -0.619779 13.6255 -0.620113 11.1455 1.8599L8.33364 4.67172C8.32862 4.67674 8.32318 4.68218 8.31858 4.6872C5.86802 7.1514 5.83367 11.1636 8.33364 13.6662C8.5982 13.9308 8.88553 14.1715 9.19229 14.3857C9.46017 14.5727 9.82261 14.5443 10.0536 14.3133L10.9345 13.4323C11.2839 13.0829 11.4406 12.6273 11.424 12.1852C11.42 12.0807 11.3916 11.9786 11.3412 11.887C11.2907 11.7954 11.2195 11.7169 11.1333 11.6577C11.0115 11.5738 10.8555 11.4537 10.7006 11.2991C9.52599 10.1245 9.52105 8.21788 10.7006 7.0383L13.5125 4.22689C14.6941 3.0453 16.6214 3.05241 17.794 4.24823C18.9551 5.43238 18.9184 7.34183 17.7457 8.51451L17.1981 9.0621C17.0161 9.24412 16.9567 9.51358 17.0398 9.75719C17.2852 10.4766 17.4181 11.2216 17.4452 11.9632C17.4665 12.545 18.1756 12.8187 18.5873 12.407L20.1399 10.8543C22.62 8.37479 22.62 4.33949 20.14 1.8599Z" fill="white"/>
</svg>
